<?xml version="1.0" standalone="no"?>
<!DOCTYPE svg PUBLIC "-//W3C//DTD SVG 20010904//EN"
 "http://www.w3.org/TR/2001/REC-SVG-20010904/DTD/svg10.dtd">
<svg version="1.0" xmlns="http://www.w3.org/2000/svg"
 width="300.000000pt" height="300.000000pt" viewBox="0 0 300.000000 300.000000"
 preserveAspectRatio="xMidYMid meet">
<metadata>
Created by potrace 1.14, written by Peter Selinger 2001-2017
</metadata>
<g transform="translate(0.000000,300.000000) scale(0.100000,-0.100000)"
fill="#000000" stroke="none">
<path d="M785 1868 c-3 -7 59 -166 138 -353 l143 -340 70 -3 c49 -2 74 1 81
10 22 29 284 672 279 685 -4 11 -27 13 -103 11 l-98 -3 -76 -199 c-42 -109
-79 -194 -81 -190 -3 5 -36 90 -73 189 -38 99 -73 186 -78 193 -6 8 -40 12
-104 12 -66 0 -95 -4 -98 -12z m210 -125 c21 -54 59 -152 84 -218 29 -73 53
-121 62 -123 12 -2 36 52 99 218 l84 220 64 0 c47 0 63 -3 59 -12 -3 -7 -62
-149 -132 -315 l-128 -303 -46 0 -46 0 -128 304 c-70 168 -127 309 -127 315 0
7 24 11 59 11 l59 0 37 -97z"/>
<path d="M1602 1872 c-9 -7 -12 -84 -10 -353 l3 -344 93 -3 92 -3 0 121 c0 67
4 120 8 118 5 -1 55 -56 111 -120 l102 -118 120 0 c91 0 119 3 119 13 0 7 -67
89 -150 183 -82 93 -150 172 -150 175 0 3 59 74 130 159 72 84 129 158 127
164 -4 13 -190 21 -211 9 -8 -4 -53 -55 -101 -113 -48 -58 -91 -106 -96 -108
-4 -2 -10 48 -11 110 l-3 113 -80 3 c-44 1 -86 -2 -93 -6z m138 -161 c0 -185
1 -185 147 -12 l118 141 64 0 c59 0 62 -1 50 -17 -8 -10 -62 -75 -121 -145
-60 -69 -108 -131 -108 -137 0 -5 57 -74 126 -153 70 -79 134 -151 142 -160
14 -17 10 -18 -64 -17 l-79 0 -120 140 c-72 84 -126 138 -135 137 -12 -3 -15
-27 -18 -141 l-3 -137 -54 0 -55 0 0 308 c0 170 3 312 7 315 3 4 28 7 55 7
l48 0 0 -129z"/>
</g>
</svg>
