<?xml version="1.0" standalone="no"?>
<!DOCTYPE svg PUBLIC "-//W3C//DTD SVG 20010904//EN"
 "http://www.w3.org/TR/2001/REC-SVG-20010904/DTD/svg10.dtd">
<svg version="1.0" xmlns="http://www.w3.org/2000/svg"
 width="186.000000pt" height="186.000000pt" viewBox="0 0 186.000000 186.000000"
 preserveAspectRatio="xMidYMid meet">
<metadata>
Created by potrace 1.14, written by Peter Selinger 2001-2017
</metadata>
<g transform="translate(0.000000,186.000000) scale(0.100000,-0.100000)"
fill="#000000" stroke="none">
<path d="M204 1266 c-5 -13 257 -656 279 -684 7 -9 32 -12 81 -10 l70 3 143
340 c79 187 141 346 138 353 -3 8 -32 12 -98 12 -64 0 -98 -4 -104 -12 -5 -7
-41 -95 -79 -195 -38 -101 -72 -183 -75 -183 -4 0 -39 84 -78 187 -40 103 -78
191 -84 195 -7 4 -52 8 -100 8 -66 0 -89 -3 -93 -14z m190 -78 c12 -29 51
-129 86 -221 47 -124 68 -167 79 -165 9 2 34 51 62 123 25 66 63 164 84 218
l37 97 60 0 c55 0 60 -2 55 -20 -3 -11 -61 -153 -128 -315 l-124 -295 -46 0
c-28 0 -49 5 -52 13 -3 6 -60 143 -127 302 -67 160 -124 296 -127 303 -4 9 11
12 56 12 l62 0 23 -52z"/>
<path d="M1015 1268 c-3 -7 -4 -166 -3 -353 l3 -340 90 0 90 0 5 120 5 120
105 -122 105 -122 117 -1 c70 0 119 4 123 10 4 6 -56 82 -133 168 -76 87 -145
167 -152 178 -14 22 -14 22 239 317 24 28 -1 37 -110 37 l-97 0 -98 -117 -99
-118 -5 115 -5 115 -88 3 c-64 2 -89 -1 -92 -10z m145 -152 c0 -123 4 -156 20
-156 5 0 61 63 125 140 l117 140 59 0 c32 0 59 -3 59 -7 0 -5 -52 -69 -115
-143 -63 -74 -115 -141 -115 -149 0 -7 46 -65 103 -129 56 -63 119 -135 140
-159 l39 -43 -79 0 -78 0 -120 140 c-67 78 -128 139 -137 140 -16 0 -18 -13
-18 -140 l0 -140 -55 0 -55 0 0 315 0 315 55 0 55 0 0 -124z"/>
</g>
</svg>
