<?xml version="1.0" standalone="no"?>
<!DOCTYPE svg PUBLIC "-//W3C//DTD SVG 20010904//EN"
 "http://www.w3.org/TR/2001/REC-SVG-20010904/DTD/svg10.dtd">
<svg version="1.0" xmlns="http://www.w3.org/2000/svg"
 width="500.000000pt" height="500.000000pt" viewBox="0 0 500.000000 500.000000"
 preserveAspectRatio="xMidYMid meet">
<metadata>
Created by potrace 1.14, written by Peter Selinger 2001-2017
</metadata>
<g transform="translate(0.000000,500.000000) scale(0.100000,-0.100000)"
fill="#000000" stroke="none">
<path d="M1775 2958 c-3 -7 59 -166 138 -353 l143 -340 70 -3 c49 -2 74 1 81
10 22 29 284 671 279 685 -5 11 -26 13 -103 11 l-98 -3 -75 -197 c-41 -108
-78 -194 -81 -190 -3 4 -37 88 -74 187 -38 99 -73 186 -78 193 -6 8 -40 12
-104 12 -66 0 -95 -4 -98 -12z m210 -125 c21 -54 59 -152 84 -218 28 -72 53
-121 62 -123 11 -2 37 54 99 218 l85 220 63 0 c47 0 63 -3 59 -12 -3 -7 -60
-143 -127 -303 -67 -159 -124 -296 -127 -302 -3 -8 -24 -13 -52 -13 l-46 0
-128 304 c-70 168 -127 309 -127 315 0 7 24 11 59 11 l59 0 37 -97z"/>
<path d="M2591 2957 c-8 -11 -11 -106 -9 -353 l3 -339 93 -3 92 -3 0 121 c0
67 4 120 8 118 5 -1 55 -56 111 -120 l102 -118 120 0 c90 0 119 3 119 13 0 7
-67 89 -150 182 -82 94 -150 172 -150 176 0 3 59 74 130 158 72 85 129 159
127 165 -4 13 -190 21 -211 9 -8 -4 -53 -55 -101 -113 -48 -58 -91 -106 -96
-108 -4 -2 -10 48 -11 110 l-3 113 -81 3 c-60 2 -84 -1 -93 -11z m139 -156 c0
-170 7 -177 87 -84 32 37 85 101 117 141 l60 72 64 0 c60 0 63 -1 51 -17 -8
-10 -62 -75 -121 -145 -60 -70 -108 -132 -108 -137 0 -6 57 -74 126 -153 70
-79 134 -151 142 -160 14 -17 10 -18 -64 -17 l-79 0 -120 140 c-72 84 -126
138 -135 137 -12 -3 -15 -27 -18 -141 l-3 -137 -54 0 -55 0 0 308 c0 170 3
312 7 315 3 4 28 7 55 7 l48 0 0 -129z"/>
</g>
</svg>
